IKResults
version=1
nRows=10
nColumns=40
inDegrees=yes

Units are S.I. units (second, meters, Newtons, ...)
Angles are in degrees.

endheader
time	pelvis_tilt	pelvis_list	pelvis_rotation	pelvis_tx	pelvis_ty	pelvis_tz	hip_flexion_r	hip_adduction_r	hip_rotation_r	knee_angle_r	knee_angle_r_beta	ankle_angle_r	subtalar_angle_r	mtp_angle_r	hip_flexion_l	hip_adduction_l	hip_rotation_l	knee_angle_l	knee_angle_l_beta	ankle_angle_l	subtalar_angle_l	mtp_angle_l	lumbar_extension	lumbar_bending	lumbar_rotation	arm_flex_r	arm_add_r	arm_rot_r	elbow_flex_r	pro_sup_r	wrist_flex_r	wrist_dev_r	arm_flex_l	arm_add_l	arm_rot_l	elbow_flex_l	pro_sup_l	wrist_flex_l	wrist_dev_l
      0.00000000	     17.72761540	     -2.46877332	      7.13129576	     -1.42524835	      0.95031187	     -1.41803304	     -5.56390088	      7.45731917	    -22.19515161	    -19.06589348	     -0.33276262	      5.16686423	     -3.53505233	     -2.44416736	    -17.24618153	      7.45449153	      4.56613679	    -55.54390631	     -0.96942404	     -6.77327127	     17.78544759	     11.50512947	    -22.24445744	      5.34379617	     -0.80289216	     -6.83074909	    -10.65960825	     -3.01945444	     21.63666388	     89.95437384	      0.00000000	      0.00000000	      4.57783703	      7.45680284	     15.95616167	     51.38847789	     89.95437384	      0.00000000	      0.00000000
      0.01000000	     18.02056724	     -2.19182700	      6.65114440	     -1.41400070	      0.95195032	     -1.41810479	     -6.82172243	      7.18654528	    -21.93839994	    -18.95074369	     -0.33075287	      5.48317830	     -3.31803063	     -2.45572314	    -16.08164528	      6.79002680	      4.08434988	    -56.88540643	     -0.99283764	     -6.00077800	     17.43984165	     11.16520508	    -22.66774159	      4.84797550	     -0.44406578	     -6.26503447	    -10.74803315	     -2.89835672	     22.32376673	     89.95437384	      0.00000000	      0.00000000	      4.17950673	      7.28472880	     15.94852424	     50.39164213	     89.95437384	      0.00000000	      0.00000000
      0.02000000	     18.27902148	     -1.93514831	      6.57932748	     -1.40227199	      0.95354237	     -1.41864470	     -8.41724755	      7.13935302	    -21.63396843	    -18.08168555	     -0.31558495	      6.09238596	     -2.82255206	     -2.54808382	    -15.00768336	      6.00440339	      2.78332252	    -57.76087157	     -1.00811739	     -4.32030093	     17.29783834	     10.75533028	    -22.88174012	      4.50947297	     -0.39754908	     -5.90479363	    -10.82169659	     -2.67140681	     23.19387189	     89.95437384	      0.00000000	      0.00000000	      3.91980949	      7.14786359	     15.84493314	     48.78485089	     89.95437384	      0.00000000	      0.00000000
      0.03000000	     18.51667395	     -1.70279150	      6.29626528	     -1.39102941	      0.95501164	     -1.41911258	     -9.78145853	      6.97335756	    -21.42047925	    -17.54484512	     -0.30621531	      6.43943544	     -2.42002481	     -2.61042552	    -13.86848865	      5.28413957	      1.99918507	    -58.42263457	     -1.01966733	     -3.31347923	     17.08538614	     10.37064287	    -23.17038711	      4.15463492	     -0.21940160	     -5.45069286	    -10.96175731	     -2.54958927	     24.19626800	     89.95437384	      0.00000000	      0.00000000	      3.56205052	      6.99171960	     15.80210812	     47.33389753	     89.95437384	      0.00000000	      0.00000000
      0.04000000	     18.65242803	     -1.48538912	      5.97311444	     -1.37974091	      0.95615559	     -1.41935033	    -10.99480646	      6.79684322	    -21.14448143	    -17.08752973	     -0.29823365	      6.83991125	     -2.05918405	     -2.67638791	    -12.65879199	      4.63581619	      1.40682577	    -58.83888063	     -1.02693220	     -2.21181101	     17.10393076	     10.00793756	    -23.32630921	      3.77074144	     -0.01200087	     -5.01583061	    -11.09343064	     -2.46075115	     25.14099654	     89.95437384	      0.00000000	      0.00000000	      3.17949734	      6.87868852	     15.75857160	     45.78048314	     89.95437384	      0.00000000	      0.00000000
      0.05000000	     18.74162964	     -1.28461012	      5.61075433	     -1.36861996	      0.95714534	     -1.41937908	    -12.12280307	      6.61742134	    -20.83614351	    -16.65761937	     -0.29073030	      7.18654920	     -1.68017658	     -2.74098654	    -11.43695128	      3.96953283	      0.77974482	    -58.99150800	     -1.02959605	     -0.93216302	     17.06702425	      9.60569891	    -23.46318278	      3.35885555	      0.28050389	     -4.65704967	    -11.19943764	     -2.48005735	     26.27578540	     89.95437384	      0.00000000	      0.00000000	      2.84528489	      6.77376298	     15.72069394	     44.14279472	     89.95437384	      0.00000000	      0.00000000
      0.06000000	     18.74127053	     -1.13256740	      5.23913293	     -1.35752387	      0.95781343	     -1.41959856	    -13.06900262	      6.40924993	    -20.64062783	    -16.39507645	     -0.28614807	      7.59962442	     -1.47216939	     -2.78300067	    -10.09132652	      3.47978760	      0.48646727	    -59.01335323	     -1.02997732	      0.22399497	     17.13539553	      9.32858889	    -23.46794334	      3.02597952	      0.49993924	     -4.15025305	    -11.34751316	     -2.53241807	     27.13444999	     89.95437384	      0.00000000	      0.00000000	      2.39498756	      6.66381188	     15.67699771	     42.46698919	     89.95437384	      0.00000000	      0.00000000
      0.07000000	     18.68952264	     -0.95268597	      4.80524819	     -1.34652153	      0.95831798	     -1.41973375	    -13.96741614	      6.18708280	    -20.07620072	    -16.07168831	     -0.28050388	      7.99483094	     -1.13726563	     -2.84454183	     -8.80378031	      2.79499510	     -0.04225177	    -58.68788414	     -1.02429681	      1.72703783	     17.36438870	      8.98868893	    -23.44013977	      2.64197977	      0.89560677	     -3.91473509	    -11.47023775	     -2.91900511	     28.51330425	     89.95437384	      0.00000000	      0.00000000	      2.10616894	      6.51604232	     15.64077438	     40.54056075	     89.95437384	      0.00000000	      0.00000000
      0.08000000	     18.59100282	     -0.86365850	      4.46906845	     -1.33546533	      0.95850881	     -1.41953274	    -14.72348979	      6.05363885	    -19.98508374	    -15.89858391	     -0.27748264	      8.38498350	     -1.07662603	     -2.86970984	     -7.37699644	      2.58722844	     -0.05825414	    -58.28219591	     -1.01721621	      2.71596803	     17.50299021	      8.80991190	    -23.32988813	      2.30377679	      1.02602188	     -3.38440720	    -11.50717066	     -3.01415146	     29.38388120	     89.95437384	      0.00000000	      0.00000000	      1.50453782	      6.52669082	     15.61323275	     38.96043405	     89.95437384	      0.00000000	      0.00000000
      0.09000000	     18.50027808	     -0.74274662	      3.98202524	     -1.32481151	      0.95858075	     -1.41962874	    -15.51456511	      5.87797273	    -19.17864427	    -15.62518245	     -0.27271088	      8.77420572	     -0.82208302	     -2.93890965	     -6.08862557	      1.99796338	     -0.52387536	    -57.60503433	     -1.00539751	      4.29190779	     17.77084526	      8.61090989	    -23.30165638	      1.97161572	      1.57150504	     -3.18164015	    -11.65430187	     -3.55301743	     30.80718667	     89.95437384	      0.00000000	      0.00000000	      1.35533504	      6.34185678	     15.60997271	     36.81287988	     89.95437384	      0.00000000	      0.00000000
